<svg xmlns:xlink="http://www.w3.org/1999/xlink" xmlns="http://www.w3.org/2000/svg" x="0px" y="0px" width="22" height="22" viewBox="0 0 22 22" data-reactid="13"><g transform="translate(0 0)" data-reactid="14"><svg width="22" height="22" viewBox="0 0 22 22" data-reactid="15"><defs data-reactid="16"><radialGradient id="si-a" cx="100%" cy="0%" r="100%" fx="100%" fy="0%" gradientTransform="matrix(.96031 0 0 1 .04 0)" data-reactid="17"><stop offset="0%" stop-color="#FFFFFF" data-reactid="18"></stop><stop offset="100%" data-reactid="19"></stop></radialGradient><radialGradient id="si-b" cx="138.086%" cy="191.795%" r="100%" fx="138.086%" fy="191.795%" gradientTransform="matrix(.96031 0 0 1 .055 0)" data-reactid="20"><stop offset="0%" stop-color="#FFFFFF" data-reactid="21"></stop><stop offset="100%" data-reactid="22"></stop></radialGradient><linearGradient id="si-c" x1="29.059%" x2="72.731%" y1="4.41%" y2="94.446%" data-reactid="23"><stop offset="0%" stop-color="#FFFFFF" stop-opacity=".5" data-reactid="24"></stop><stop offset="50.369%" stop-opacity=".5" data-reactid="25"></stop><stop offset="100%" stop-color="#FFFFFF" stop-opacity=".5" data-reactid="26"></stop></linearGradient></defs><g fill="none" fill-rule="evenodd" data-reactid="27"><path fill="#FAD04F" stroke="none" stroke-linecap="round" stroke-linejoin="round" stroke-width="2px" d="M5.94780935,19.9103119 C5.39362363,20.2063737 4.74571533,19.726644 4.8516626,19.0975128 L5.74949779,13.7601774 C5.79160504,13.510718 5.71010714,13.2557759 5.53217006,13.0789612 L1.72893473,9.29869134 C1.28069628,8.85322806 1.52790658,8.07743663 2.14729062,7.98560266 L7.40390516,7.20706992 C7.64975716,7.1700622 7.86301,7.01243673 7.97303217,6.7849078 L10.3228883,1.92867274 C10.5999811,1.35710909 11.4000189,1.35710909 11.6771117,1.92867274 L14.0283261,6.7849078 C14.1383483,7.01243673 14.3516011,7.1700622 14.5974531,7.20706992 L19.8527094,7.98560266 C20.4720934,8.07743663 20.7193037,8.85322806 20.2710653,9.29869134 L16.4678299,13.0789612 C16.2898929,13.2557759 16.208395,13.510718 16.2505022,13.7601774 L17.1483374,19.0975128 C17.2542847,19.726644 16.6077347,20.2063737 16.0535489,19.9103119 L11.3511201,17.3896751 C11.1310758,17.2717987 10.8689242,17.2717987 10.6488799,17.3896751 L5.94780935,19.9103119 Z" data-reactid="28"></path></g></svg></g></svg>