<svg xmlns:xlink="http://www.w3.org/1999/xlink" xmlns="http://www.w3.org/2000/svg" x="0px" y="0px" width="46" height="46" viewBox="0 0 22 22" data-reactid="10"><g transform="translate(0 0)" data-reactid="11"><svg viewBox="0 0 47 47" data-reactid="12"><g stroke="none" stroke-width="2px" fill="none" fill-rule="evenodd" data-reactid="13"><circle fill="#F0FAFF" cx="22.9500006" cy="22.9500006" r="22.9500006" data-reactid="14" stroke-width="2px"></circle><path d="M10,27.8708558 C10,30.0399634 11.5818289,31.8 13.5347613,31.8 L15.5065087,31.8 L15.5065087,36 L20.7681042,31.8 L28.4565603,31.8 C30.4079465,31.8 31.9913217,30.0399634 31.9913217,27.8708558 L32,18.9291442 C32,16.7600366 30.4166248,15 28.4652387,15 L13.5434396,15 C11.5905072,15 10.0086783,16.7600366 10.0086783,18.9291442 L10,27.8708558 Z" stroke="#CDCAC3" stroke-width="2px" fill="#FFFFFF" stroke-linecap="round" stroke-linejoin="round" data-reactid="15"></path><path d="M31.9649113,27.3163786 L32.4222722,27.3200004 C34.3815272,27.3200004 35.9712872,25.5851071 35.9712872,23.4469867 L35.9800006,14.6330137 C35.9800006,12.4948933 34.3902405,10.7600001 32.4309855,10.7600001 L17.4490152,10.7600001 C15.4882077,10.7600001 13.9000001,12.4948933 13.9000001,14.6330137" stroke="#CDCAC3" stroke-width="2px" stroke-linecap="round" stroke-linejoin="round" data-reactid="16" fill="none"></path><circle fill="#27A9E1" cx="15.5" cy="23.5" r="1.5" data-reactid="17" stroke-width="2px"></circle><circle fill="#27A9E1" cx="20.5" cy="23.5" r="1.5" data-reactid="18" stroke-width="2px"></circle><circle fill="#27A9E1" cx="25.5" cy="23.5" r="1.5" data-reactid="19" stroke-width="2px"></circle></g></svg></g></svg>