<svg xmlns:xlink="http://www.w3.org/1999/xlink" xmlns="http://www.w3.org/2000/svg" x="0px" y="0px" width="46" height="46" viewBox="0 0 22 22" data-reactid="23"><g transform="translate(0 0)" data-reactid="24"><svg viewBox="0 0 47 47" data-reactid="25"><circle fill="#FFF8DA" cx="22.9500006" cy="22.9500006" r="22.9500006" data-reactid="26"></circle><path d="M8.50000024,26.5003579 C8.50000024,29.3906841 10.6390644,31.735925 13.2799617,31.735925 L15.946302,31.735925 L15.946302,37.3324061 L23.0614143,31.735925 L33.4583042,31.735925 C36.0971106,31.735925 38.2382657,29.3906841 38.2382657,26.5003579 L38.2500011,14.5855673 C38.2500011,11.6952411 36.108846,9.35000026 33.4700396,9.35000026 L13.2916971,9.35000026 C10.6507998,9.35000026 8.51173564,11.6952411 8.51173564,14.5855673 L8.50000024,26.5003579 Z" stroke="#CDCAC3" stroke-width="1.7px" fill="#FFFFFF" stroke-linecap="round" stroke-linejoin="round" data-reactid="27"></path><path d="M19.0887681,27.5526178 C18.6680465,27.7761739 18.1761735,27.4139303 18.2566056,26.9388736 L18.9382158,22.9086543 C18.9701824,22.7202876 18.9083115,22.527781 18.7732269,22.3942683 L15.8859222,19.5397884 C15.5456327,19.2034193 15.7333075,18.6176195 16.2035257,18.5482757 L20.1941933,17.9604061 C20.3808369,17.9324615 20.5427323,17.8134386 20.6262579,17.6416316 L22.4101997,13.974691 C22.6205605,13.5431035 23.2279257,13.5431035 23.4382864,13.974691 L25.2232595,17.6416316 C25.3067851,17.8134386 25.4686804,17.9324615 25.655324,17.9604061 L29.6449604,18.5482757 C30.1151786,18.6176195 30.3028534,19.2034193 29.9625639,19.5397884 L27.0752592,22.3942683 C26.9401746,22.527781 26.8783038,22.7202876 26.9102704,22.9086543 L27.5918805,26.9388736 C27.6723126,27.4139303 27.1814708,27.7761739 26.7607492,27.5526178 L23.1908032,25.6492862 C23.023752,25.5602778 22.8247342,25.5602778 22.657683,25.6492862 L19.0887681,27.5526178 Z" fill="#FAD04F" data-reactid="28"></path></svg></g></svg>