<svg xmlns:xlink="http://www.w3.org/1999/xlink" xmlns="http://www.w3.org/2000/svg" x="0px" y="0px" width="45" height="45" viewBox="0 0 22 22" data-reactid="9"><g transform="translate(0 0)" data-reactid="10"><svg viewBox="0 0 56 57" data-reactid="11"><g fill="none" fill-rule="evenodd" stroke="#27A9E1" stroke-linejoin="round" stroke-width="2px" transform="translate(3 6)" data-reactid="12"><path d="M5,35 L5,40 L0,40 L0,35 L5,35 Z M20,35 L20,40 L16,40 L16,35 L20,35 Z M35,35 L35,40 L31,40 L31,35 L35,35 Z M51,35 L51,40 L46,40 L46,35 L51,35 Z M5,9 L5,14 L0,14 L0,9 L5,9 Z M20,9 L20,14 L16,14 L16,9 L20,9 Z M35,9 L35,14 L31,14 L31,9 L35,9 Z M51,9 L51,14 L46,14 L46,9 L51,9 Z" data-reactid="13" stroke="#27A9E1" fill="none" stroke-width="2px"></path><path d="M5.49800079,0 L11,4.96158914 L11,45.9615891 L0,45.9615891 L0,4.96158914 L5.49800079,0 Z M20.4980008,0 L26,4.96158914 L26,45.9615891 L15,45.9615891 L15,4.96158914 L20.4980008,0 Z M35.4980008,0 L41,4.96158914 L41,45.9615891 L30,45.9615891 L30,4.96158914 L35.4980008,0 Z" transform="translate(5)" data-reactid="14" stroke="#27A9E1" fill="none" stroke-width="2px"></path></g></svg></g></svg>